<svg width="240" height="220" viewBox="0 0 240 220" fill="none" xmlns="http://www.w3.org/2000/svg">
<path d="M175.055 18.5058C128.289 25.984 120 68.7507 120 68.7507V201.667C120 201.667 128.867 157 180.004 151.79C185.493 151.231 190 147.195 190 142.137V31.104C190 23.5168 183.216 17.2008 175.055 18.5058Z" stroke="#3B82F6" stroke-width="16" stroke-linecap="round" stroke-linejoin="round"/>
<path d="M53.3333 45.8341C77.9379 45.8025 101.685 53.9656 120 68.7507V201.667C101.685 186.882 77.9379 178.719 53.3333 178.751C37.7132 178.751 29.9032 178.751 26.4526 176.727C24.381 175.511 23.5346 174.735 22.2086 172.835C20 169.673 20 164.03 20 152.744V77.0302C20 63.9421 20 57.3981 25.4874 52.0935C30.9748 46.789 36.5923 46.5152 47.8272 45.9678C49.65 45.879 51.4858 45.8341 53.3333 45.8341Z" stroke="#3B82F6" stroke-width="16" stroke-linecap="round" stroke-linejoin="round"/>
<path d="M120 201.676C138.315 186.892 162.062 178.729 186.667 178.76C202.287 178.76 210.097 178.76 213.547 176.736C215.619 175.52 216.465 174.744 217.791 172.845C220 169.682 220 164.039 220 152.753V77.0395C220 63.9514 220 57.4074 214.513 52.1029C209.025 46.7983 201.235 46.3814 190 45.834" stroke="#3B82F6" stroke-width="16" stroke-linecap="round" stroke-linejoin="round"/>
</svg>
