<svg width="800" height="700" viewBox="0 0 800 700" fill="none" xmlns="http://www.w3.org/2000/svg">
<path d="M583.517 58.8806C427.63 82.6751 400 218.751 400 218.751V641.667C400 641.667 429.557 499.544 600.013 482.966C618.31 481.187 633.333 468.347 633.333 452.253V98.9658C633.333 74.8249 610.72 54.7285 583.517 58.8806Z" stroke="#3B82F6" stroke-width="50" stroke-linecap="round" stroke-linejoin="round"/>
<path d="M177.779 145.834C259.794 145.734 338.951 171.707 400.001 218.751V641.667C338.951 594.624 259.794 568.652 177.779 568.751C125.712 568.751 99.6786 568.751 88.1766 562.311C81.2713 558.443 78.45 555.973 74.03 549.929C66.668 539.867 66.668 521.912 66.668 486.002V245.095C66.668 203.451 66.668 182.629 84.9593 165.751C103.251 148.873 121.976 148.002 159.425 146.26C165.501 145.977 171.621 145.834 177.779 145.834Z" stroke="#3B82F6" stroke-width="50" stroke-linecap="round" stroke-linejoin="round"/>
<path d="M400 641.696C461.05 594.654 540.207 568.681 622.223 568.78C674.29 568.78 700.323 568.78 711.823 562.34C718.73 558.472 721.55 556.002 725.97 549.961C733.333 539.896 733.333 521.941 733.333 486.031V245.124C733.333 203.48 733.333 182.659 715.043 165.78C696.75 148.902 670.783 147.576 633.333 145.834" stroke="#3B82F6" stroke-width="50" stroke-linecap="round" stroke-linejoin="round"/>
</svg>
