<svg width="400" height="400" viewBox="0 0 400 400" fill="none" xmlns="http://www.w3.org/2000/svg">
<rect width="400" height="400" rx="80" fill="#0885FE"/>
<path d="M257.349 108.506C208.634 115.984 200 158.751 200 158.751V291.667C200 291.667 209.236 247 262.504 241.79C268.222 241.23 272.917 237.195 272.917 232.137V121.104C272.917 113.517 265.85 107.201 257.349 108.506Z" stroke="white" stroke-width="10.6667" stroke-linecap="round" stroke-linejoin="round"/>
<path d="M130.554 135.834C156.184 135.803 180.921 143.966 199.999 158.751V291.667C180.921 276.882 156.184 268.719 130.554 268.751C114.283 268.751 106.148 268.751 102.553 266.727C100.396 265.511 99.5139 264.735 98.1327 262.835C95.832 259.673 95.832 254.03 95.832 242.744V167.03C95.832 153.942 95.832 147.398 101.548 142.094C107.264 136.789 113.116 136.515 124.819 135.968C126.717 135.879 128.63 135.834 130.554 135.834Z" stroke="white" stroke-width="10.6667" stroke-linecap="round" stroke-linejoin="round"/>
<path d="M200 291.677C219.078 276.892 243.815 268.729 269.445 268.76C285.716 268.76 293.851 268.76 297.445 266.736C299.603 265.52 300.484 264.744 301.866 262.846C304.167 259.682 304.167 254.039 304.167 242.753V167.04C304.167 153.951 304.167 147.407 298.451 142.103C292.734 136.798 284.62 136.381 272.917 135.834" stroke="white" stroke-width="10.6667" stroke-linecap="round" stroke-linejoin="round"/>
</svg>
